<svg width="32" height="32" viewBox="0 0 32 32" fill="none" xmlns="http://www.w3.org/2000/svg">
<path d="M28 21.3332V10.6666C27.9995 10.1989 27.8761 9.73966 27.6421 9.33479C27.408 8.92993 27.0717 8.59373 26.6667 8.35991L17.3333 3.02658C16.9279 2.79253 16.4681 2.66931 16 2.66931C15.5319 2.66931 15.0721 2.79253 14.6667 3.02658L5.33333 8.35991C4.92835 8.59373 4.59197 8.92993 4.35795 9.33479C4.12392 9.73966 4.00048 10.1989 4 10.6666V21.3332C4.00048 21.8009 4.12392 22.2602 4.35795 22.665C4.59197 23.0699 4.92835 23.4061 5.33333 23.6399L14.6667 28.9732C15.0721 29.2073 15.5319 29.3305 16 29.3305C16.4681 29.3305 16.9279 29.2073 17.3333 28.9732L26.6667 23.6399C27.0717 23.4061 27.408 23.0699 27.6421 22.665C27.8761 22.2602 27.9995 21.8009 28 21.3332Z" stroke="#3C64B1" stroke-width="2" stroke-linecap="round" stroke-linejoin="round"/>
<path d="M4.36 9.28003L16 16.0134L27.64 9.28003" stroke="#3C64B1" stroke-width="2" stroke-linecap="round" stroke-linejoin="round"/>
<path d="M16 29.44V16" stroke="#3C64B1" stroke-width="2" stroke-linecap="round" stroke-linejoin="round"/>
</svg>
