<svg width="67" height="39" viewBox="0 0 67 39" fill="none" xmlns="http://www.w3.org/2000/svg">
<path d="M42.1109 29.9452C63.168 29.9452 64.8643 12.0306 65 3.51725C65.0012 3.28566 64.956 3.05618 64.867 2.84239C64.7779 2.6286 64.6469 2.43483 64.4817 2.27256C64.3165 2.11029 64.1204 1.98281 63.905 1.89767C63.6897 1.81253 63.4594 1.77145 63.2279 1.77687C33.3033 2.32646 33.3033 16.8343 33.3033 29.9452V36.9913" stroke="#3C64B1" stroke-width="3" stroke-linecap="round" stroke-linejoin="round"/>
<path d="M33.3033 29.9452C33.3033 29.9452 33.3033 19.3762 47.3954 17.6146" stroke="#3C64B1" stroke-width="3" stroke-linecap="round" stroke-linejoin="round"/>
<path d="M24.4852 29.9452C3.42813 29.9452 1.73179 12.0306 1.59616 3.51725C1.59491 3.28566 1.64014 3.05618 1.72915 2.84239C1.81817 2.6286 1.94917 2.43483 2.1144 2.27256C2.27963 2.11029 2.47572 1.98281 2.69109 1.89767C2.90646 1.81253 3.13671 1.77145 3.36823 1.77687C33.2928 2.32646 33.2928 16.8343 33.2928 29.9452V36.9913" stroke="#3C64B1" stroke-width="3" stroke-linecap="round" stroke-linejoin="round"/>
<path d="M33.2928 29.9452C33.2928 29.9452 33.2928 19.3762 19.2007 17.6146" stroke="#3C64B1" stroke-width="3" stroke-linecap="round" stroke-linejoin="round"/>
</svg>
