<svg width="32" height="32" viewBox="0 0 32 32" fill="none" xmlns="http://www.w3.org/2000/svg">
<path d="M21.3333 4H1.33334V21.3333H21.3333V4Z" stroke="#3C64B1" stroke-width="2" stroke-linecap="round" stroke-linejoin="round"/>
<path d="M21.3333 10.6666H26.6667L30.6667 14.6666V21.3333H21.3333V10.6666Z" stroke="#3C64B1" stroke-width="2" stroke-linecap="round" stroke-linejoin="round"/>
<path d="M7.33333 28C9.17428 28 10.6667 26.5077 10.6667 24.6667C10.6667 22.8258 9.17428 21.3334 7.33333 21.3334C5.49238 21.3334 4 22.8258 4 24.6667C4 26.5077 5.49238 28 7.33333 28Z" stroke="#3C64B1" stroke-width="2" stroke-linecap="round" stroke-linejoin="round"/>
<path d="M24.6667 28C26.5076 28 28 26.5077 28 24.6667C28 22.8258 26.5076 21.3334 24.6667 21.3334C22.8257 21.3334 21.3333 22.8258 21.3333 24.6667C21.3333 26.5077 22.8257 28 24.6667 28Z" stroke="#3C64B1" stroke-width="2" stroke-linecap="round" stroke-linejoin="round"/>
</svg>
